{"title":"Tamasha {2015} 1/5 DesiScr Rip XviD MP3 {Team DUS} - jnmjy","uid":12858439,"size":944689324,"categoryP":"video","categoryS":"movies","magnet":"?xt=urn:btih:5855cb89855065db304331beb1d74805cbfb2c94&amp;dn=Tamasha+%7B2015%7D+1%2F5+DesiScr+Rip+XviD+MP3+%7BTeam+DUS%7D+-+jnmjy+&amp;tr=udp%3A%2F%2Ftracker.leechers-paradise.org%3A6969&amp;tr=udp%3A%2F%2Fzer0day.ch%3A1337&amp;tr=udp%3A%2F%2Fopen.demonii.com%3A1337&amp;tr=udp%3A%2F%2Ftracker.coppersurfer.tk%3A6969&amp;tr=udp%3A%2F%2Fexodus.desync.com%3A6969","seeders":1,"leechers":0,"uploader":"makintos13","files":1,"time":1448709754,"description":"screens:\r\n \nhttp://imgmak.com/KaK \nhttp://imgmak.com/KaT \nhttp://imgmak.com/Kaa \nhttp://imgmak.com/Kap \nhttp://imgmak.com/KaR \nhttp://imgmak.com/Kab \nhttp://imgmak.com/Kax \nhttp://imgmak.com/Kaz \nhttp://imgmak.com/Ka7\r\n\r\nYear.............: 2015\r\nSource: IcTv\r\nRipper...........: jnmjy\r\n\r\nGeneral\r\nFormat : AVI\r\nFormat/Info : Audio Video Interleave\r\nFile size : 901 MiB\r\nDuration : 2h 18mn\r\nOverall bit rate mode : Variable\r\nOverall bit rate : 911 Kbps\r\n\r\nVideo\r\nID : 0\r\nFormat : MPEG-4 Visual\r\nFormat profile : Advanced   \r\nFormat settings, BVOP : 2\r\nFormat settings, QPel : No\r\nFormat settings, GMC : No warppoints\r\nFormat settings, Matrix : Default (H.263)\r\nCodec ID : XVID\r\nCodec ID/Hint : XviD\r\nDuration : 2h 18mn\r\nBit rate : 807 Kbps\r\nWidth : 608 pixels\r\nHeight : 256 pixels\r\nDisplay aspect ratio : 2.40:1\r\nFrame rate : 23.976 fps\r\nColor space : YUV\r\nChroma subsampling : 4:2:0\r\nBit depth : 8 bits\r\nScan type : Progressive\r\nCompression mode : Lossy\r\nBits/(Pixel*Frame) : 0.216\r\nStream size : 799 MiB (89%)\r\nWriting library : XviD 1.2.1 (UTC 2008-12-04)\r\n\r\nAudio\r\nID : 1\r\nFormat : MPEG Audio\r\nFormat version : Version 1\r\nFormat profile : Layer 3\r\nMode : Joint stereo\r\nCodec ID : 55\r\nCodec ID/Hint : MP3\r\nDuration : 2h 18mn\r\nBit rate mode : Variable\r\nBit rate : 96.0 Kbps\r\nChannel(s) : 2 channels\r\nSampling rate : 32.0 KHz\r\nCompression mode : Lossy\r\nStream size : 92.5 MiB (10%)\r\nAlignment : Aligned on interleaves\r\nInterleave, duration : 36 ms (0.86 video frame)\r\nInterleave, preload duration : 351 ms\r\nTitle : VTS_01_1 T80 3_2ch 448Kbps DELAY 0ms\r\nWriting library : LAME3.99r\r\nEncoding settings : -m j -V 4 -q 2 -lowpass 15.1 --abr 96","torrent":{"xt":"urn:btih:5855cb89855065db304331beb1d74805cbfb2c94","amp;dn":"Tamasha+%7B2015%7D+1%2F5+DesiScr+Rip+XviD+MP3+%7BTeam+DUS%7D+-+jnmjy+","amp;tr":["udp%3A%2F%2Ftracker.leechers-paradise.org%3A6969","udp%3A%2F%2Fzer0day.ch%3A1337","udp%3A%2F%2Fopen.demonii.com%3A1337","udp%3A%2F%2Ftracker.coppersurfer.tk%3A6969","udp%3A%2F%2Fexodus.desync.com%3A6969"],"infoHash":"5855cb89855065db304331beb1d74805cbfb2c94","infoHashBuffer":{"type":"Buffer","data":[88,85,203,137,133,80,101,219,48,67,49,190,177,215,72,5,203,251,44,148]},"announce":[],"urlList":[]}}